# xmcd
#
# Track frame offsets: 
#        150
#        12295
#        24623
#        38616
#        52706
#        65533
#        78438
#        91811
#        105048
#        118491
#        131970
#        147031
#        161453
#        174722
#        188759
#        201963
#        215616
#        228876
#        242161
#        257075
#        271851
#        284583
#        298004
#
# Disc length: 4173 seconds
#
# Revision: 4
# Processed by: cddbd v1.5.1PL2 Copyright (c) Steve Scherf et al.
# Submitted via: ExactAudioCopy v0.95b4
#
DISCID=47104b17
DTITLE=Charlie Patton - Primeval Blues, Rags, and Gospel Songs
DYEAR=2005
DGENRE=Blues
TTITLE0=Revenue Man Blues
TTITLE1=Hang It On The Wall
TTITLE2=Prayer Of Death - Part 1
TTITLE3=High Water Everywhere - Part 2
TTITLE4=Stone Pony Blues
TTITLE5=Prayer Of Death - Part 2
TTITLE6=Mean Black Cat Blues
TTITLE7=34 Blues
TTITLE8=You're Gonna Need Somebody When You Die
TTITLE9=Elder Green Blues (take 2 - unissued)
TTITLE10=Dry Well Blues
TTITLE11=Some Happy Day
TTITLE12=Love My Stuff
TTITLE13=Tom Rushen Blues
TTITLE14=Troubled Bout My Mother
TTITLE15=Some Summer Day
TTITLE16=Running Wild Blues
TTITLE17=Jesus Is A Dying Bed Maker
TTITLE18=Some Of These Days I'll Be Gone
TTITLE19=Hammer Blues
TTITLE20=Oh Death
TTITLE21=Poor Me
TTITLE22=Frankie And Albert
EXTD=
EXTT0=
EXTT1=
EXTT2=
EXTT3=
EXTT4=
EXTT5=
EXTT6=
EXTT7=
EXTT8=
EXTT9=
EXTT10=
EXTT11=
EXTT12=
EXTT13=
EXTT14=
EXTT15=
EXTT16=
EXTT17=
EXTT18=
EXTT19=
EXTT20=
EXTT21=
EXTT22=
PLAYORDER=
